# xmcd
#
# Track frame offsets:
#	150
#	16558
#	29594
#	40374
#	58828
#	78883
#	102164
#	124748
#	142902
#	164371
#	186287
#	208044
#	224684
#	244758
#	261368
#	284312
#	298777
#
# Disc length: 4350 seconds
#
# Revision: 1
# Processed by: cddbd v1.5.1PL0 Copyright (c) Steve Scherf et al.
# Submitted via: audiograbber 1.83.01
#
DISCID=0110fc11
DTITLE=Various Artist - Love Kills
DYEAR=2005
DGENRE=
TTITLE0=Him - Join Me In Death
TTITLE1=Starsailor - Alcoholic
TTITLE2=Radiohead - Banana Co
TTITLE3=Reamonn - Supergirl
TTITLE4=Primal Scream - (I'm Gonna) Cry Myself Blind 
TTITLE5=Sinead o' Connor - Nothing Compares To You
TTITLE6=The Smiths - Last Night I Dreamt That Somebody Loved Me
TTITLE7=Sophie Zelmani - So Long
TTITLE8=Hooverphonic - 2 Wicky
TTITLE9=Manic Street Preachers - If You Tolerate This Your Children Will Be Nex
TTITLE9=t
TTITLE10=K'S Choice - Not An Addict
TTITLE11=Crazy Town - Revolving Doors
TTITLE12=Soul Asylum - Runaway Train
TTITLE13=The Pretenders - Thin Line Between Love and Hate
TTITLE14=Simple Minds - Love Song
TTITLE15=The Divine - Perfect Lovesong
TTITLE16=Doves - Lost Souls
EXTD=
EXTT0=
EXTT1=
EXTT2=
EXTT3=
EXTT4=
EXTT5=
EXTT6=
EXTT7=
EXTT8=
EXTT9=
EXTT10=
EXTT11=
EXTT12=
EXTT13=
EXTT14=
EXTT15=
EXTT16=
PLAYORDER=
